PathFileType  4	(X/Y/Z) W:\OA_GaitRetraining\OpenSimAllSubjects\Subject_114\Gait\Week1\Files_W_HJCs\
DataRate	CameraRate	NumFrames	NumMarkers	Units	OrigDataRate	OrigDataStartFrame	OrigNumFrames
  100.0		  100.0		    5		     57		 mm	  100.0	      288	    460
Frame#	Time	r_knee			r_shank(antsup)			r_ankle			r_calc			r_5meta			r_toe			L_knee			L_shank(ant_sup)			L_ankle			L_calc			L_5meta			L_toe			r_mknee			r_mankle			L_mknee			L_mankle			r_sh2			r_sh3			r_sh4			L_sh2			L_sh3			r_thigh1			r_thigh2			r_thigh3			r_thigh4			r_thigh5			L_thigh1			L_thigh2			L_thigh3			L_thigh4			r.ASIS			r.PSIS			L.ASIS			L.PSIS			C7			R_Shoulder			L_Shoulder			R_Sternum			L_Sternum			R_HJC			L_HJC			R_HJC_reg			L_HJC_reg			midPSIS			midASIS			midHJC			midPelvis			R_KJC			L_KJC			R_AJC			L_AJC			R_AJC_proj			R_5meta_proj			R_toe_proj			L_AJC_proj			L_5meta_proj			L_toe_proj			
		X1	Y1	Z1	X2	Y2	Z2	X3	Y3	Z3	X4	Y4	Z4	X5	Y5	Z5	X6	Y6	Z6	X7	Y7	Z7	X8	Y8	Z8	X9	Y9	Z9	X10	Y10	Z10	X11	Y11	Z11	X12	Y12	Z12	X13	Y13	Z13	X14	Y14	Z14	X15	Y15	Z15	X16	Y16	Z16	X17	Y17	Z17	X18	Y18	Z18	X19	Y19	Z19	X20	Y20	Z20	X21	Y21	Z21	X22	Y22	Z22	X23	Y23	Z23	X24	Y24	Z24	X25	Y25	Z25	X26	Y26	Z26	X27	Y27	Z27	X28	Y28	Z28	X29	Y29	Z29	X30	Y30	Z30	X31	Y31	Z31	X32	Y32	Z32	X33	Y33	Z33	X34	Y34	Z34	X35	Y35	Z35	X36	Y36	Z36	X37	Y37	Z37	X38	Y38	Z38	X39	Y39	Z39	X40	Y40	Z40	X41	Y41	Z41	X42	Y42	Z42	X43	Y43	Z43	X44	Y44	Z44	X45	Y45	Z45	X46	Y46	Z46	X47	Y47	Z47	X48	Y48	Z48	X49	Y49	Z49	X50	Y50	Z50	X51	Y51	Z51	X52	Y52	Z52	X53	Y53	Z53	X54	Y54	Z54	X55	Y55	Z55	X56	Y56	Z56	X57	Y57	Z57	

288	2.87000	1163.451	501.905	-322.251	1217.279	435.544	-325.235	1249.993	111.638	-324.243	1194.638	68.213	-371.998	1361.251	40.598	-301.442	1429.634	81.102	-361.621	981.340	486.539	-693.011	990.298	419.927	-667.252	808.381	115.850	-658.947	739.827	74.847	-599.791	893.858	42.627	-692.419	967.444	78.491	-641.171	1219.675	499.806	-461.169	1290.602	128.432	-413.295	989.822	471.919	-541.567	837.976	122.152	-563.499	1235.599	326.780	-313.409	1137.081	421.072	-316.292	1155.166	307.033	-309.131	910.962	453.153	-700.606	878.132	336.430	-708.226	1128.263	780.243	-293.819	1169.452	688.319	-300.149	1127.857	630.593	-290.968	1024.790	735.113	-295.599	1067.058	633.428	-305.500	1105.910	710.702	-705.739	1086.606	585.493	-679.535	1015.333	727.726	-754.032	976.948	602.317	-721.257	1149.381	953.218	-345.931	907.635	1018.216	-466.265	1157.578	948.799	-687.697	904.189	1023.708	-554.279	955.506	1398.241	-519.235	1061.047	1404.873	-407.110	1054.950	1383.417	-647.071	1106.695	1327.252	-505.068	1106.964	1330.020	-550.606	1041.397	863.980	-426.580	1038.281	845.954	-611.016	1061.868	850.088	-399.074	1053.057	864.129	-624.114	905.912	1020.962	-510.272	1153.480	951.008	-516.814	1039.839	854.967	-518.798	1029.696	985.985	-513.543	1191.563	500.856	-391.710	985.581	479.229	-617.289	1270.298	120.035	-368.769	823.179	119.001	-611.223	1270.298	0.000	-368.769	1361.251	0.000	-301.442	1429.634	0.000	-361.621	823.179	0.000	-611.223	893.858	0.000	-692.419	967.444	0.000	-641.171
289	2.88000	1163.421	501.905	-322.304	1217.261	435.559	-325.082	1249.927	111.486	-324.233	1194.604	68.242	-372.078	1361.251	40.601	-301.563	1429.627	81.047	-361.624	981.423	486.502	-692.950	990.347	419.880	-667.260	808.385	115.773	-658.865	739.788	74.791	-599.835	893.809	42.570	-692.474	967.365	78.488	-641.236	1219.645	499.805	-461.089	1290.635	128.448	-413.208	989.945	472.178	-541.116	837.905	122.152	-563.434	1235.579	326.715	-313.433	1137.111	421.075	-316.329	1155.203	307.011	-309.088	911.021	453.184	-700.878	878.365	336.280	-708.042	1128.092	780.095	-293.826	1169.398	688.402	-300.108	1127.839	630.603	-290.960	1024.714	735.111	-295.592	1067.007	633.431	-305.545	1105.990	710.693	-705.696	1086.605	585.455	-679.500	1015.362	727.722	-753.961	976.974	602.289	-721.209	1149.334	953.165	-345.905	907.616	1018.164	-466.262	1157.630	948.702	-687.678	904.184	1023.639	-554.308	955.480	1398.282	-519.231	1061.016	1404.783	-407.102	1054.933	1383.422	-647.083	1107.438	1327.211	-504.424	1107.019	1329.998	-550.557	1041.370	863.921	-426.560	1038.290	845.876	-610.995	1061.834	850.047	-399.041	1053.061	864.042	-624.091	905.900	1020.902	-510.285	1153.482	950.934	-516.791	1039.830	854.898	-518.777	1029.691	985.918	-513.538	1191.533	500.855	-391.697	985.684	479.340	-617.033	1270.281	119.967	-368.720	823.145	118.962	-611.150	1270.281	0.000	-368.720	1361.251	0.000	-301.563	1429.627	0.000	-361.624	823.145	0.000	-611.150	893.809	0.000	-692.474	967.365	0.000	-641.236
290	2.89000	1163.460	501.904	-322.174	1217.249	435.508	-325.076	1249.984	111.553	-324.221	1194.583	68.109	-372.025	1361.221	40.653	-301.395	1429.592	81.053	-361.629	981.498	486.424	-692.998	990.336	419.879	-667.421	808.418	115.685	-658.859	739.863	74.786	-599.760	893.877	42.648	-692.457	967.411	78.569	-641.177	1219.704	499.827	-461.070	1290.593	128.465	-413.230	990.052	471.926	-541.265	837.949	122.186	-563.485	1235.630	326.735	-313.372	1137.109	421.118	-316.250	1155.220	307.051	-309.005	911.134	453.108	-700.774	878.379	336.255	-708.124	1128.086	780.102	-293.793	1169.370	688.329	-300.064	1127.817	630.549	-290.906	1024.572	734.908	-295.700	1066.540	633.244	-305.373	1105.987	710.703	-705.665	1086.711	585.457	-679.434	1015.380	727.625	-754.007	977.046	602.226	-721.161	1149.246	953.108	-345.850	907.620	1018.128	-466.248	1157.635	948.637	-687.645	904.179	1023.626	-554.353	955.603	1398.270	-519.221	1060.959	1404.749	-407.054	1055.100	1383.453	-647.040	1107.354	1326.868	-503.976	1107.018	1329.945	-550.519	1041.307	863.877	-426.542	1038.268	845.831	-610.978	1061.801	849.958	-399.005	1053.013	864.001	-624.068	905.900	1020.877	-510.301	1153.441	950.873	-516.748	1039.788	854.854	-518.760	1029.670	985.875	-513.524	1191.582	500.865	-391.622	985.775	479.175	-617.132	1270.288	120.009	-368.725	823.184	118.935	-611.172	1270.288	0.000	-368.725	1361.221	0.000	-301.395	1429.592	0.000	-361.629	823.184	0.000	-611.172	893.877	0.000	-692.457	967.411	0.000	-641.177
291	2.90000	1163.466	501.906	-322.079	1217.197	435.357	-325.090	1249.956	111.574	-324.180	1194.642	68.126	-372.032	1361.192	40.496	-301.537	1429.634	81.105	-361.530	981.558	486.396	-693.038	990.506	419.939	-667.386	808.361	115.770	-658.839	739.831	74.752	-599.832	893.785	42.568	-692.455	967.420	78.513	-641.103	1219.625	499.801	-461.049	1290.574	128.410	-413.178	990.091	471.612	-541.687	837.905	122.152	-563.434	1235.589	326.729	-313.381	1137.065	421.064	-316.234	1155.205	307.054	-309.028	911.238	453.011	-700.816	878.367	336.245	-708.195	1128.043	780.112	-293.779	1169.273	688.289	-300.076	1127.775	630.524	-290.927	1024.587	734.865	-295.663	1066.452	633.243	-305.336	1106.011	710.661	-705.618	1086.831	585.429	-679.458	1015.410	727.658	-753.911	976.974	602.302	-721.300	1149.141	953.015	-345.804	907.561	1018.141	-466.294	1157.611	948.612	-687.690	904.179	1023.537	-554.365	955.728	1398.141	-519.219	1060.963	1404.707	-407.032	1055.341	1383.386	-646.945	1107.354	1326.868	-503.976	1107.066	1329.876	-550.439	1041.227	863.815	-426.571	1038.225	845.795	-611.010	1061.572	850.093	-398.914	1052.928	863.887	-624.059	905.870	1020.839	-510.330	1153.376	950.814	-516.747	1039.726	854.805	-518.791	1029.623	985.827	-513.539	1191.546	500.853	-391.564	985.824	479.004	-617.362	1270.265	119.992	-368.679	823.133	118.961	-611.137	1270.265	0.000	-368.679	1361.192	0.000	-301.537	1429.634	0.000	-361.530	823.133	0.000	-611.137	893.785	0.000	-692.455	967.420	0.000	-641.103
292	2.91000	1163.392	501.841	-322.081	1217.171	435.348	-325.063	1249.967	111.529	-324.183	1194.606	68.170	-372.049	1361.230	40.405	-301.625	1429.632	80.987	-361.583	981.588	486.373	-693.038	990.526	419.901	-667.408	808.276	115.734	-658.904	739.830	74.811	-599.804	893.832	42.608	-692.439	967.436	78.506	-641.204	1219.638	499.797	-461.041	1290.554	128.432	-413.184	990.228	471.923	-541.220	837.900	122.199	-563.465	1235.550	326.703	-313.335	1137.044	421.078	-316.211	1155.175	307.011	-308.992	911.148	453.049	-700.906	878.475	336.198	-708.100	1128.018	780.126	-293.781	1169.225	688.253	-300.104	1127.732	630.484	-290.888	1024.539	734.880	-295.673	1066.441	633.220	-305.336	1106.125	710.743	-705.587	1086.786	585.475	-679.505	1015.376	727.669	-754.052	977.120	602.226	-721.253	1149.154	953.034	-345.741	907.522	1018.116	-466.280	1157.569	948.521	-687.700	904.210	1023.425	-554.409	955.677	1398.164	-519.259	1060.963	1404.673	-406.997	1055.315	1383.428	-647.099	1107.354	1326.868	-503.976	1107.066	1329.876	-550.439	1041.235	863.798	-426.518	1038.229	845.706	-610.950	1061.443	850.174	-398.832	1052.978	863.740	-624.047	905.866	1020.770	-510.344	1153.362	950.777	-516.721	1039.732	854.752	-518.734	1029.614	985.774	-513.532	1191.515	500.819	-391.561	985.908	479.148	-617.129	1270.261	119.980	-368.683	823.088	118.967	-611.185	1270.261	0.000	-368.683	1361.230	0.000	-301.625	1429.632	0.000	-361.583	823.088	0.000	-611.185	893.832	0.000	-692.439	967.436	0.000	-641.204
